<?xml version="1.0" encoding="UTF-8"?>
<svg version="1.1" xmlns="http://www.w3.org/2000/svg" width="860" height="706">
<path d="M0 0 C6.27064592 -0.29323164 10.00788 1.45004853 14.921875 5.2734375 C15.921875 6.2734375 15.921875 6.2734375 16.1953125 9.08984375 C16.11258637 14.68241544 14.1857645 19.9138125 12.546875 25.2109375 C11.91269132 27.30297024 11.2798504 29.39541057 10.6484375 31.48828125 C10.34663574 32.48666016 10.04483398 33.48503906 9.73388672 34.51367188 C8.6843998 38.08053902 7.78826229 41.65737192 6.921875 45.2734375 C6.13434149 48.48279241 5.34007888 51.69048003 4.546875 54.8984375 C4.3509375 55.69894531 4.155 56.49945313 3.953125 57.32421875 C2.73811207 62.22272025 1.41009618 67.07295629 -0.00390625 71.91796875 C-2.04251704 78.99733321 -3.79469776 86.11744473 -5.42553711 93.29956055 C-5.89798981 95.36818414 -6.38546964 97.43294251 -6.87304688 99.49804688 C-7.17800274 100.83051908 -7.48207338 102.16319427 -7.78515625 103.49609375 C-8.0581958 104.67953369 -8.33123535 105.86297363 -8.61254883 107.08227539 C-9.30622412 110.58731807 -9.30622412 110.58731807 -8.078125 115.2734375 C-0.818125 115.2734375 6.441875 115.2734375 13.921875 115.2734375 C16.61951655 108.54377732 16.61951655 108.54377732 19.2734375 101.796875 C26.2100473 84.64685199 36.78299745 66.60098498 54.0625 58.2109375 C60.12370889 56.2236559 66.41849735 55.71638077 72.34765625 58.3515625 C78.04199009 62.25502298 82.14561807 67.8449694 83.671875 74.5859375 C84.605465 77.39366783 84.605465 77.39366783 86.79296875 78.02734375 C87.55738281 78.23230469 88.32179688 78.43726562 89.109375 78.6484375 C93.75738178 79.97966274 96.62070468 81.76799517 99.54321289 85.6640625 C104.62828802 95.28851495 99.64057115 109.0034531 96.98971558 118.82723999 C95.80451133 123.22564609 94.67855773 127.63935871 93.54296875 132.05078125 C93.31623978 132.92525406 93.0895108 133.79972687 92.85591125 134.70069885 C90.86069669 142.42141404 89.04434739 150.16645598 87.359375 157.9609375 C87.1207373 159.03166504 86.88209961 160.10239258 86.63623047 161.20556641 C83.67332066 173.77554239 83.67332066 173.77554239 84.921875 186.2734375 C87.96574224 186.35570418 89.99362848 186.24951967 92.921875 185.2734375 C93.96623076 183.483496 93.96623076 183.483496 94.921875 181.2734375 C96.03765144 179.4967781 97.16419433 177.72686791 98.296875 175.9609375 C99.42154725 174.11127648 100.53279904 172.25413418 101.64013672 170.39404297 C102.51645367 168.94419744 103.41235104 167.50605505 104.32470703 166.07861328 C115.57255772 148.30455349 118.98374603 129.40784002 122.96533203 109.07128906 C124.24032051 102.60315657 125.70416933 96.18605764 127.234375 89.7734375 C127.56187744 88.33605225 127.56187744 88.33605225 127.89599609 86.86962891 C129.53100472 79.98860332 131.41435295 72.3125559 136.609375 67.2109375 C140.91689345 64.69144558 144.04890307 64.35129524 148.921875 65.2734375 C153.40398409 66.94573957 155.84799898 68.97755145 157.921875 73.2734375 C160.47707421 74.08514978 160.47707421 74.08514978 162.921875 74.2734375 C163.16421875 73.54382813 163.4065625 72.81421875 163.65625 72.0625 C165.0850061 68.91394489 166.72077721 67.07452409 169.171875 64.6484375 C169.91953125 63.89304688 170.6671875 63.13765625 171.4375 62.359375 C177.59171889 57.19215348 182.82655894 56.73269424 190.640625 56.9296875 C194.83971682 57.36959236 196.89572376 58.32294004 199.921875 61.2734375 C200.42976563 61.7478125 200.93765625 62.2221875 201.4609375 62.7109375 C210.88112435 72.36314866 211.21872479 86.09946641 211.23876953 98.81005859 C211.10672052 108.31269661 209.41783086 117.1311624 206.921875 126.2734375 C206.60839111 127.42875977 206.60839111 127.42875977 206.28857422 128.60742188 C200.78341888 148.3517543 193.06412095 169.26491155 179.56640625 185.0234375 C179.02371094 185.7659375 178.48101562 186.5084375 177.921875 187.2734375 C178.251875 188.2634375 178.581875 189.2534375 178.921875 190.2734375 C189.32413445 189.72595016 197.98105427 181.30821181 204.921875 174.2734375 C214.36784399 163.74127905 223.15675765 150.24794914 225.81640625 136.19921875 C225.96935654 135.44520279 226.12230682 134.69118683 226.27989197 133.9143219 C226.60555882 132.30521416 226.92642173 130.69512768 227.24279785 129.08416748 C228.08024011 124.82822646 228.95779369 120.58053931 229.83203125 116.33203125 C230.00664886 115.47957825 230.18126648 114.62712524 230.36117554 113.74884033 C231.98874166 105.84659465 233.78163397 97.99161249 235.671875 90.1484375 C236.07563354 88.44747925 236.07563354 88.44747925 236.48754883 86.7121582 C241.52776395 66.01642407 241.52776395 66.01642407 245.609375 62.0234375 C249.89860437 59.75742953 253.16930712 59.33655136 257.921875 60.2734375 C262.56613366 62.76757641 266.23562522 65.21468817 267.921875 70.2734375 C269.241875 70.2734375 270.561875 70.2734375 271.921875 70.2734375 C273.66270331 68.49826513 273.66270331 68.49826513 275.171875 66.1484375 C279.41128191 60.35913989 285.57420098 54.13791112 293 52.9375 C299.87436067 52.81386042 304.61949973 54.40913242 309.8359375 58.93359375 C318.5829361 67.99697315 319.62357404 78.79417313 319.484375 90.8984375 C319.47748657 91.90922363 319.47748657 91.90922363 319.47045898 92.94042969 C319.15581185 126.79486812 307.38641981 158.79408013 287.921875 186.2734375 C285.55207487 189.22721248 285.55207487 189.22721248 285.921875 193.2734375 C297.86342444 191.96815735 307.36154911 181.92682256 314.921875 173.2734375 C318.22340293 169.11436985 321.16343601 164.80579223 323.921875 160.2734375 C324.27910645 159.70093262 324.63633789 159.12842773 325.00439453 158.53857422 C331.26939513 148.25398103 333.54956846 137.8593585 335.6484375 126.09765625 C337.15264744 117.7300343 339.21270219 109.51461017 341.26147461 101.2668457 C342.79162553 95.06601407 344.24112383 88.86584216 345.52734375 82.609375 C345.91224976 80.76158447 345.91224976 80.76158447 346.30493164 78.87646484 C346.78737222 76.53363559 347.25484777 74.18765756 347.70483398 71.83837891 C349.7966391 61.76409742 349.7966391 61.76409742 354.921875 58.2734375 C360.69584186 56.75694702 366.08062832 58.29850188 371.23046875 61.0078125 C374.09208477 63.14906791 375.75813386 65.14874749 376.28076172 68.73852539 C376.15573602 74.95545622 375.49209861 80.66944806 374.046875 86.7109375 C373.83490479 87.64703857 373.62293457 88.58313965 373.40454102 89.54760742 C372.59096414 93.12618854 371.75763193 96.69999129 370.921875 100.2734375 C357.06015319 142.92257371 357.06015319 142.92257371 359.921875 184.2734375 C365.08383421 184.23399021 365.08383421 184.23399021 369.61328125 182.0703125 C382.13865073 168.5965469 385.83246867 143.6903622 389.921875 126.2734375 C390.36213013 124.41126587 390.36213013 124.41126587 390.8112793 122.51147461 C392.63510454 114.78912389 394.4365562 107.06199262 396.2109375 99.328125 C396.4026503 98.49318008 396.5943631 97.65823517 396.79188538 96.79798889 C397.57750344 93.37566269 398.36285134 89.95327832 399.14550781 86.53027344 C399.72812872 83.98333326 400.31309523 81.43694093 400.8984375 78.890625 C401.15942734 77.7451973 401.15942734 77.7451973 401.4256897 76.57662964 C404.72481022 62.256717 404.72481022 62.256717 408.921875 59.2734375 C414.45453636 58.22546822 419.46812017 58.53380785 424.484375 61.0859375 C425.28875 61.8078125 426.093125 62.5296875 426.921875 63.2734375 C427.46106064 63.72765579 428.00024628 64.18187408 428.55577087 64.64985657 C430.74512803 67.25185334 430.24670937 69.58788613 430.13259888 72.85848999 C429.81098624 76.54424997 429.07690998 80.04758313 428.19921875 83.63671875 C428.01836731 84.41402847 427.83751587 85.1913382 427.65118408 85.99220276 C427.2630995 87.65886497 426.870995 89.32459548 426.47518921 90.98944092 C425.41678605 95.45205342 424.39595904 99.92322792 423.375 104.39453125 C423.16671066 105.30511292 422.95842133 106.21569458 422.74382019 107.15386963 C420.70539397 116.12097325 418.85654561 125.12040847 417.109375 134.1484375 C416.96667175 134.88554962 416.82396851 135.62266174 416.67694092 136.3821106 C414.06558589 149.95752312 411.85305833 163.58394349 409.921875 177.2734375 C421.03080452 174.31943644 427.32292433 160.75764757 432.921875 151.2734375 C434.50831691 148.29753982 436.06077656 145.31803939 437.53515625 142.28515625 C438.921875 140.2734375 438.921875 140.2734375 440.96484375 139.35546875 C441.61066406 139.32839844 442.25648438 139.30132812 442.921875 139.2734375 C443.581875 139.9334375 444.241875 140.5934375 444.921875 141.2734375 C444.73011659 147.65148893 442.12383146 152.80118382 439.359375 158.4609375 C438.90900879 159.39204346 438.45864258 160.32314941 437.99462891 161.2824707 C430.5340685 176.42379539 419.20778414 194.74949807 404.921875 204.2734375 C403.93396996 206.99517386 403.93396996 206.99517386 403.2734375 210.25 C402.99322754 211.47009766 402.71301758 212.69019531 402.42431641 213.94726562 C402.28133118 214.59252197 402.13834595 215.23777832 401.99102783 215.90258789 C401.24743174 219.24401871 400.45764965 222.57453272 399.671875 225.90625 C399.21941406 227.83065918 399.21941406 227.83065918 398.7578125 229.79394531 C394.21777459 248.69132275 387.29806896 268.0601016 374.921875 283.2734375 C374.31085937 284.03785156 373.69984375 284.80226563 373.0703125 285.58984375 C367.0451181 292.34575321 358.6393984 297.10297675 349.7734375 298.91796875 C340.94519914 299.41615018 333.64421665 295.92367997 326.75390625 290.59765625 C324.9473952 288.92210762 323.42849746 287.22071555 321.921875 285.2734375 C321.49003906 284.7371875 321.05820312 284.2009375 320.61328125 283.6484375 C315.93393765 276.39464534 317.05023743 265.7523022 318.359375 257.5234375 C324.40554145 236.36185492 347.53242174 225.33832163 364.98046875 215.19140625 C366.6278365 214.21914355 368.27499732 213.24653008 369.921875 212.2734375 C370.88432129 211.72937256 370.88432129 211.72937256 371.86621094 211.17431641 C374.43637039 209.63668656 375.77051044 208.63393935 376.9453125 205.8359375 C377.06132813 204.9903125 377.17734375 204.1446875 377.296875 203.2734375 C377.49410156 202.005 377.49410156 202.005 377.6953125 200.7109375 C377.98357486 198.01763325 377.98357486 198.01763325 377.921875 194.2734375 C374.66461292 193.91726422 373.30369401 193.99657042 370.60546875 195.953125 C369.49365234 197.03980469 369.49365234 197.03980469 368.359375 198.1484375 C362.79977189 203.52496876 359.30388178 204.63510931 351.546875 204.6484375 C350.804375 204.67292969 350.061875 204.69742188 349.296875 204.72265625 C344.02991725 204.75057299 341.12079381 203.70202835 336.921875 200.2734375 C330.62060095 193.61209065 329.26928976 186.03955943 327.921875 177.2734375 C324.66847937 177.57738796 323.24899577 177.93861977 320.9296875 180.3125 C320.30835938 181.16585937 319.68703125 182.01921875 319.046875 182.8984375 C307.18112735 198.39655688 291.22886013 207.09228658 271.921875 210.2734375 C268.76909082 210.52842757 265.64609891 210.55982727 262.484375 210.5234375 C261.65470215 210.51884521 260.8250293 210.51425293 259.97021484 210.50952148 C254.08909483 210.42244077 248.61430335 209.79068008 242.921875 208.2734375 C241.25623479 207.93501237 239.58965992 207.60112997 237.921875 207.2734375 C232.83586792 227.75647245 228.05481627 248.33597357 224.57421875 269.16015625 C224.35838135 270.43656982 224.14254395 271.7129834 223.92016602 273.02807617 C223.51424175 275.46727872 223.12208674 277.90882551 222.74584961 280.3527832 C221.00656954 290.86327968 221.00656954 290.86327968 216.921875 294.2734375 C213.03269428 295.65795801 209.1049869 295.53635126 205.109375 294.6484375 C201.76472049 292.54608323 199.67740484 289.78449718 197.921875 286.2734375 C197.36555817 279.94943647 198.36616851 274.04676162 199.734375 267.8984375 C201.10111373 261.4365684 202.33164065 254.99472022 203.296875 248.4609375 C204.59240231 239.8555966 206.20019137 231.3147872 207.859375 222.7734375 C207.98948975 222.10309479 208.11960449 221.43275208 208.25366211 220.74209595 C209.99988925 211.77043347 211.79798043 202.81019116 213.80444336 193.89257812 C214.5956594 190.28971176 215.10865235 186.96588203 214.921875 183.2734375 C210.49871838 183.75722026 208.82391627 185.03146473 205.921875 188.3359375 C194.34448065 200.4747774 178.42678062 206.96499453 161.8359375 207.56640625 C159.61475338 207.60517637 157.39333961 207.63240564 155.171875 207.6484375 C154.10662598 207.66221436 153.04137695 207.67599121 151.94384766 207.69018555 C146.14659993 207.65628616 141.27146164 207.11941711 135.85058594 205.01416016 C133.20092134 203.99655479 130.76868287 203.2734375 127.921875 203.2734375 C127.79731934 204.39854736 127.67276367 205.52365723 127.54443359 206.68286133 C126.94955017 211.42664358 125.98192392 216.0548909 124.9609375 220.72265625 C124.56750034 222.56050236 124.17427855 224.39839459 123.78125 226.23632812 C123.16983837 229.07720857 122.5563071 231.91758844 121.93847656 234.75708008 C119.5123337 245.93522858 117.33357794 257.04330405 116.01675415 268.41423035 C115.307745 274.08142523 114.14479468 278.70853018 110.296875 283.1484375 C106.55504863 284.92088157 102.97939036 284.94002931 98.921875 284.2734375 C95.58587133 282.21505225 94.0956574 280.5341111 91.921875 277.2734375 C90.97710026 270.3164599 92.0980029 263.23063036 93.15234375 256.34375 C93.28309296 255.48202682 93.41384216 254.62030365 93.54855347 253.73246765 C95.25194549 242.79565191 97.41061015 231.94471234 99.546875 221.0859375 C100.16079854 217.96088271 100.77333935 214.83558991 101.38143921 211.70939636 C101.75529294 209.78759053 102.13235535 207.86640479 102.51333618 205.94599915 C103.59314424 200.39742682 104.36977503 194.89978616 104.921875 189.2734375 C103.271875 188.9434375 101.621875 188.6134375 99.921875 188.2734375 C99.5815625 189.0778125 99.5815625 189.0778125 99.234375 189.8984375 C95.44751862 196.75084429 90.23081088 201.38937091 82.921875 204.2734375 C76.96377048 205.19652412 71.88014693 205.16668435 66.359375 202.6484375 C60.5026713 196.94190569 58.74751522 191.04623906 56.921875 183.2734375 C53.86692805 183.58822089 52.3605219 183.77257866 50.296875 186.12890625 C49.843125 186.89847656 49.389375 187.66804687 48.921875 188.4609375 C48.41140625 189.275625 47.9009375 190.0903125 47.375 190.9296875 C46.89546875 191.703125 46.4159375 192.4765625 45.921875 193.2734375 C41.95875855 198.88785247 37.29395414 202.69492513 30.921875 205.2734375 C26.31554616 205.98210347 22.7675513 205.28839785 18.69140625 203.046875 C10.42703133 196.7516851 7.49321637 186.16858842 5.921875 176.2734375 C5.63238417 172.60172877 5.58948597 168.95539357 5.609375 165.2734375 C5.61130859 163.77200195 5.61130859 163.77200195 5.61328125 162.24023438 C5.71128467 154.56166665 6.64676689 147.36190095 8.265625 139.8671875 C9.13145285 135.73461214 9.13145285 135.73461214 8.921875 129.2734375 C1.661875 129.6034375 -5.598125 129.9334375 -13.078125 130.2734375 C-14.37029167 134.1499375 -15.44769478 137.59872864 -16.26733398 141.53759766 C-16.47772812 142.53949127 -16.68812225 143.54138489 -16.90489197 144.57363892 C-17.12576981 145.64246307 -17.34664764 146.71128723 -17.57421875 147.8125 C-17.80843033 148.92974457 -18.04264191 150.04698914 -18.28395081 151.1980896 C-19.03119052 154.76418189 -19.77379893 158.33121543 -20.515625 161.8984375 C-21.25429414 165.44414601 -21.99405019 168.98961483 -22.73658752 172.53451538 C-23.19754652 174.73570486 -23.65630375 176.93735707 -24.1124115 179.13955688 C-24.75019309 182.18831801 -25.40682995 185.23188511 -26.078125 188.2734375 C-26.43730515 189.90475616 -26.43730515 189.90475616 -26.80374146 191.56903076 C-27.1755806 193.16560516 -27.1755806 193.16560516 -27.55493164 194.79443359 C-27.77484268 195.75046478 -27.99475372 196.70649597 -28.22132874 197.6914978 C-29.13236241 200.43688094 -30.11766536 202.15567593 -32.078125 204.2734375 C-35.78414635 205.50877795 -38.17566114 205.72872495 -42.078125 205.2734375 C-45.35082013 203.17140999 -48.3223285 200.7850305 -50.078125 197.2734375 C-50.71606288 189.61721788 -49.49432521 182.12078528 -48.265625 174.5859375 C-48.08475342 173.43834961 -47.90388184 172.29076172 -47.7175293 171.10839844 C-46.7465236 165.04507394 -45.6663649 159.02951988 -44.390625 153.0234375 C-42.71328189 145.12032362 -42.71328189 145.12032362 -42.078125 132.2734375 C-52.638125 132.2734375 -63.198125 132.2734375 -74.078125 132.2734375 C-75.73682443 137.21054556 -75.73682443 137.21054556 -77.06787109 142.18554688 C-77.23513702 142.89560883 -77.40240295 143.60567078 -77.57473755 144.33724976 C-77.74858978 145.08962921 -77.92244202 145.84200867 -78.1015625 146.6171875 C-78.28774139 147.41573151 -78.47392029 148.21427551 -78.66574097 149.03701782 C-79.26489371 151.61505864 -79.85902246 154.1942287 -80.453125 156.7734375 C-80.65643433 157.64804626 -80.85974365 158.52265503 -81.06921387 159.42376709 C-83.65312912 170.54860292 -86.16385349 181.65734393 -87.67333984 192.99023438 C-88.28109806 196.98667993 -88.85773103 198.98059043 -91.34765625 202.2890625 C-95.21088474 205.09667348 -97.77406028 204.97599706 -102.41015625 204.76953125 C-106.59545058 203.99129936 -108.27741072 202.44266681 -111.078125 199.2734375 C-112.27391137 195.68607838 -112.1574033 192.86352463 -112.10546875 189.078125 C-112.09280923 187.6250025 -112.08044927 186.17187736 -112.06835938 184.71875 C-112.04368968 182.44132147 -112.01585563 180.16403251 -111.98217773 177.88671875 C-111.74200178 160.54866229 -114.87723946 146.4492122 -127.078125 133.2734375 C-130.07058752 131.27846249 -130.95296313 130.99230014 -134.3515625 130.74609375 C-135.5890625 130.64071289 -135.5890625 130.64071289 -136.8515625 130.53320312 C-138.5778783 130.4023038 -140.30444487 130.27466827 -142.03125 130.15039062 C-146.80250323 129.73792247 -150.13337189 129.23200233 -154.078125 126.2734375 C-154.696875 125.8609375 -155.315625 125.4484375 -155.953125 125.0234375 C-157.078125 123.2734375 -157.078125 123.2734375 -157.078125 119.8359375 C-155.87512281 115.55024219 -154.77396982 114.63694047 -151.078125 112.2734375 C-143.19117449 110.88402653 -135.88377829 112.09501792 -129.078125 116.2734375 C-128.49522705 116.78648437 -127.9123291 117.29953125 -127.31176758 117.828125 C-124.48958503 119.65426126 -122.77784262 119.61970959 -119.4375 119.56640625 C-118.36757812 119.55673828 -117.29765625 119.54707031 -116.1953125 119.53710938 C-115.08414063 119.51197266 -113.97296875 119.48683594 -112.828125 119.4609375 C-111.70148438 119.44740234 -110.57484375 119.43386719 -109.4140625 119.41992188 C-106.63493236 119.38459395 -103.85677137 119.3352627 -101.078125 119.2734375 C-98.34888046 111.88310364 -96.77039716 104.38168181 -95.26208496 96.66827393 C-90.76403618 73.78895827 -85.13945782 51.33961554 -78.390625 29.0234375 C-78.15637817 28.24309143 -77.92213135 27.46274536 -77.68078613 26.65875244 C-71.80391947 7.16564889 -71.80391947 7.16564889 -67.22265625 2.3046875 C-62.50640055 0.03676126 -57.14872923 0.62035846 -52.078125 1.2734375 C-48.78260564 2.54386836 -47.60567564 3.6309982 -45.078125 6.2734375 C-43.23509659 11.94031925 -44.99810523 16.56008912 -46.703125 22.0234375 C-47.27015905 23.92038537 -47.83655575 25.81752386 -48.40234375 27.71484375 C-48.68770996 28.65730957 -48.97307617 29.59977539 -49.26708984 30.57080078 C-50.40221432 34.35341002 -51.46689408 38.153617 -52.515625 41.9609375 C-52.71454346 42.6818457 -52.91346191 43.40275391 -53.1184082 44.14550781 C-53.54231408 45.68451015 -53.96537969 47.22374412 -54.38769531 48.76318359 C-54.87145506 50.52203005 -55.35802181 52.28010574 -55.84667969 54.03759766 C-59.45515405 67.02939871 -62.83740425 80.06924071 -65.97079468 93.18334961 C-66.33108403 94.68948947 -66.69385699 96.19503759 -67.05923462 97.69995117 C-67.57254043 99.82022376 -68.07491383 101.94279854 -68.57421875 104.06640625 C-68.86482178 105.2886792 -69.1554248 106.51095215 -69.45483398 107.77026367 C-70.28249092 111.82903351 -70.28249092 111.82903351 -70.078125 118.2734375 C-54.733125 117.7784375 -54.733125 117.7784375 -39.078125 117.2734375 C-36.61466572 107.43730649 -36.61466572 107.43730649 -34.31640625 97.5703125 C-34.00314765 96.17915012 -33.68966164 94.78803893 -33.37597656 93.39697266 C-33.13530457 92.32760468 -33.13530457 92.32760468 -32.88977051 91.2366333 C-30.00022913 78.42449587 -27.00173615 65.6432478 -23.828125 52.8984375 C-23.35306519 50.97789551 -23.35306519 50.97789551 -22.8684082 49.01855469 C-21.11345414 42.03187683 -19.15057843 35.15376719 -16.98876953 28.28271484 C-16.15948811 25.5423066 -15.43432225 22.8076187 -14.76953125 20.0234375 C-14.57939453 19.23066406 -14.38925781 18.43789063 -14.19335938 17.62109375 C-13.81809544 16.02721652 -13.45387583 14.43070661 -13.09960938 12.83203125 C-11.83985422 7.68272902 -10.42991345 4.63409464 -6.078125 1.2734375 C-3.98810162 0.46774146 -2.2098825 0.29077401 0 0 Z " fill="#E76383" transform="translate(282.078125,39.7265625)"/>
<path d="M0 0 C5.80614745 1.09040008 9.136351 4.81646738 12.43359375 9.45703125 C15.42982824 15.44950024 13.01513681 23.74213384 11.62109375 29.95703125 C11.45544922 30.74722656 11.28980469 31.53742188 11.11914062 32.3515625 C10.07702982 37.15706967 8.71791575 41.75244249 7.11401367 46.3984375 C6.21055084 49.13184209 5.58941635 51.89151281 4.99609375 54.70703125 C4.0543744 58.92303636 2.9957901 63.02926014 1.68359375 67.14453125 C-0.72918285 74.75899732 -2.73826124 82.47434731 -4.78808594 90.19311523 C-6.49897964 96.59900902 -8.29023259 102.96921692 -10.19897461 109.31884766 C-24.47118358 149.8704304 -24.47118358 149.8704304 -22.56640625 190.45703125 C-19.62519517 190.88745238 -17.44232898 191.01323272 -14.87084961 189.38037109 C-10.44778466 185.60788654 -7.50009352 181.77554789 -4.69140625 176.70703125 C-4.27358887 175.96751221 -3.85577148 175.22799316 -3.42529297 174.46606445 C-2.55661044 172.91306949 -1.69615575 171.35544523 -0.84375 169.79345703 C-0.00925423 168.26705709 0.83666011 166.74682957 1.6953125 165.23388672 C6.90973939 156.02433702 10.20277443 147.57924351 11.98681641 137.13842773 C16.15998896 113.09510489 28.09469058 82.42249564 48.43359375 67.64453125 C55.65795823 62.87906191 61.6011 60.26457527 70.43359375 61.45703125 C76.7561607 63.13558885 79.84765245 66.70785403 83.21875 72.14453125 C84.29306868 74.18953658 84.99810641 76.07597176 85.68359375 78.26953125 C88.03354217 82.54979445 90.5077882 82.9122523 94.984375 84.421875 C99.24341741 86.22194875 101.38459624 89.35903623 103.43359375 93.45703125 C104.36646102 102.98903431 102.25157289 111.75686947 99.87109375 120.89453125 C99.50680246 122.33694338 99.14403428 123.77974095 98.78271484 125.22290039 C98.041655 128.17750526 97.29413431 131.13035333 96.54150391 134.08203125 C94.82360871 140.83902327 93.19280796 147.61692159 91.55859375 154.39453125 C91.27298584 155.56491943 90.98737793 156.73530762 90.69311523 157.94116211 C87.40131075 170.5176572 87.40131075 170.5176572 86.18359375 183.39453125 C86.1784375 184.29042969 86.17328125 185.18632813 86.16796875 186.109375 C86.28272849 188.72650797 86.28272849 188.72650797 88.43359375 191.45703125 C90.81923452 190.88118693 93.10042159 190.2347553 95.43359375 189.45703125 C96.44632464 187.7269459 96.44632464 187.7269459 97.43359375 185.45703125 C98.41899756 183.82968388 99.40556921 182.20300166 100.40380859 180.58349609 C104.56192373 173.82677877 108.32007601 166.96389674 111.78173828 159.82519531 C113.07623997 157.15695068 114.36098443 154.56979808 115.96801758 152.07397461 C117.50414509 149.33105427 118.0821296 147.21010917 118.609375 144.125 C118.79419434 143.0922998 118.97901367 142.05959961 119.16943359 140.99560547 C119.45488037 139.33682373 119.45488037 139.33682373 119.74609375 137.64453125 C121.5045303 127.97380188 123.5698876 118.47144687 126.05957031 108.96435547 C127.59969409 103.00836219 128.96463454 97.04154754 130.1953125 91.015625 C130.34526672 90.29119202 130.49522095 89.56675903 130.64971924 88.82037354 C131.54815788 84.48240619 131.54815788 84.48240619 132.40789795 80.13665771 C132.79711097 78.1212443 133.20908405 76.11160869 133.625 74.1015625 C133.85388916 72.93987549 134.08277832 71.77818848 134.31860352 70.58129883 C135.66173209 66.81777432 137.38147723 64.99462812 140.43359375 62.45703125 C145.58933184 61.2487724 150.18452775 61.8211431 154.87109375 64.20703125 C155.71671875 64.94953125 156.56234375 65.69203125 157.43359375 66.45703125 C158.48933594 67.31772217 158.48933594 67.31772217 159.56640625 68.19580078 C163.28265969 72.69631586 161.90673986 78.93176781 161.43359375 84.45703125 C160.69580184 88.91164897 159.6050763 93.22359216 158.43359375 97.58203125 C157.78985129 100.11254744 157.14931282 102.64372395 156.51171875 105.17578125 C156.26014008 106.16476913 156.26014008 106.16476913 156.003479 107.17373657 C145.38827766 145.81245484 145.38827766 145.81245484 143.43359375 185.45703125 C145.09925711 188.7146888 145.09925711 188.7146888 148.12109375 189.01953125 C152.96819271 188.19643897 155.34407121 186.22920455 158.43359375 182.45703125 C174.16679842 157.80971324 178.52485032 120.19039296 184.484375 91.890625 C184.72115715 90.77304558 184.72115715 90.77304558 184.96272278 89.63288879 C185.69706819 86.15601318 186.41469781 82.67719478 187.10180664 79.19067383 C187.47873657 77.36572388 187.47873657 77.36572388 187.86328125 75.50390625 C188.07194824 74.45041992 188.28061523 73.39693359 188.49560547 72.31152344 C189.5833105 69.00141224 191.07476547 66.99940604 193.43359375 64.45703125 C197.72155962 62.31304831 203.33972005 62.75907335 207.80078125 64.24609375 C211.43435776 65.98967808 213.14287329 67.02095056 215.43359375 70.45703125 C216.64047926 78.44717738 214.30965237 86.27361404 212.37109375 93.95703125 C211.72025926 96.62318489 211.0801505 99.29186443 210.44140625 101.9609375 C210.27572647 102.65026871 210.11004669 103.33959991 209.93934631 104.04981995 C208.05007465 111.96481795 206.3793221 119.9233149 204.74609375 127.89453125 C204.59951324 128.60878265 204.45293274 129.32303406 204.3019104 130.05892944 C201.89762987 141.81781013 199.7284178 153.61000771 197.77807617 165.45288086 C197.49964242 167.07276933 197.17488023 168.68465229 196.8359375 170.29296875 C196.42476418 172.50452232 196.33302471 174.5234576 196.37109375 176.76953125 C196.40203125 178.59484375 196.40203125 178.59484375 196.43359375 180.45703125 C199.1580204 180.41170807 200.90081639 179.9593743 202.90380859 178.07080078 C204.55589424 176.10464259 206.09864907 174.08780527 207.62109375 172.01953125 C208.1833667 171.27195557 208.74563965 170.52437988 209.32495117 169.75415039 C215.17953733 161.77604479 219.88870955 153.22876035 224.43359375 144.45703125 C226.08359375 144.45703125 227.73359375 144.45703125 229.43359375 144.45703125 C231.01853612 149.22096722 229.58223985 152.43450933 227.55859375 156.76953125 C227.08256714 157.81524292 227.08256714 157.81524292 226.59692383 158.88208008 C220.55959198 171.87962015 213.39626077 183.29181845 204.43359375 194.45703125 C203.77359375 195.44703125 203.11359375 196.43703125 202.43359375 197.45703125 C201.77359375 197.45703125 201.11359375 197.45703125 200.43359375 197.45703125 C200.18391846 198.05829834 199.93424316 198.65956543 199.67700195 199.27905273 C198.25272496 201.77384462 196.88635 202.68625827 194.5390625 204.3046875 C189.22540845 208.81691438 188.37834599 214.25512353 187.12472534 220.89309692 C186.61147347 223.60612967 186.0286644 226.30276378 185.44953918 229.00236511 C185.02735585 230.97515573 184.61466086 232.94996923 184.20214844 234.92480469 C181.70969037 246.37997727 177.63119829 256.95574861 172.43359375 267.45703125 C171.94890625 268.49859375 171.46421875 269.54015625 170.96484375 270.61328125 C167.81416043 277.24982697 164.28458118 282.93658696 159.43359375 288.45703125 C158.50740234 289.524375 158.50740234 289.524375 157.5625 290.61328125 C151.57688035 297.06859741 144.07314266 301.86986026 135.13671875 302.66015625 C126.59028474 302.82346391 120.21203777 300.79325314 113.43359375 295.45703125 C107.31182085 289.44035316 103.10385092 283.55290754 103.015625 274.61010742 C103.03689453 273.60620972 103.03689453 273.60620972 103.05859375 272.58203125 C103.07599609 271.52495972 103.07599609 271.52495972 103.09375 270.4465332 C103.49417892 257.67255621 109.67287486 248.79136699 118.74609375 240.01953125 C129.63369484 230.66821743 142.77518053 223.70473903 155.17797852 216.57836914 C157.85787525 215.03085982 160.23459197 213.65603303 162.43359375 211.45703125 C162.89846093 208.33506789 162.89846093 208.33506789 163.05859375 204.83203125 C163.13335938 203.64351562 163.208125 202.455 163.28515625 201.23046875 C163.33414063 200.31523438 163.383125 199.4 163.43359375 198.45703125 C160.23020946 198.11421293 158.85318739 198.14493068 156.22265625 200.1015625 C155.15144531 201.17470703 155.15144531 201.17470703 154.05859375 202.26953125 C148.906647 207.06500063 144.62620523 209.54943537 137.49609375 209.83203125 C130.96938913 209.58443244 125.79817833 208.26773567 121.18359375 203.45703125 C116.69752797 197.71193338 114.72362797 190.53306052 113.43359375 183.45703125 C112.11359375 183.45703125 110.79359375 183.45703125 109.43359375 183.45703125 C107.51865274 185.78761231 107.51865274 185.78761231 105.80859375 188.83203125 C100.06608646 197.84531728 93.20591498 206.61797089 82.43359375 209.45703125 C76.97220593 210.11616426 73.23436554 209.12412669 68.43359375 206.45703125 C64.10629986 202.22808495 62.29852686 198.13342142 60.43359375 192.45703125 C59.77292656 190.7879773 59.10921123 189.12008965 58.43359375 187.45703125 C55.60021149 187.79580522 54.63216844 188.21448645 52.79296875 190.4609375 C52.261875 191.30527344 51.73078125 192.14960937 51.18359375 193.01953125 C47.03749712 199.229779 41.6112481 206.65599541 34.43359375 209.45703125 C29.18731378 210.2434755 24.62564932 209.91028352 20.0625 206.9140625 C12.66888095 200.30058551 9.93595734 190.69652756 7.43359375 181.45703125 C5.55865016 181.45954707 5.55865016 181.45954707 3.43359375 182.45703125 C1.89465561 184.62566875 0.56531321 186.72510848 -0.75390625 189.01953125 C-6.88462624 199.07712597 -14.24750816 205.68406522 -25.56640625 209.45703125 C-30.75161977 210.07001192 -35.42465622 209.94407255 -39.93359375 206.9765625 C-45.87161668 201.45050766 -48.30926047 194.25133508 -49.56640625 186.45703125 C-51.21640625 186.12703125 -52.86640625 185.79703125 -54.56640625 185.45703125 C-54.82164062 186.18148437 -55.076875 186.9059375 -55.33984375 187.65234375 C-59.08005907 196.20481063 -67.00131578 204.33515123 -75.12890625 208.89453125 C-80.29896795 210.08762241 -84.06184243 210.04497833 -88.69140625 207.39453125 C-96.64492775 201.90244774 -99.47639695 194.10526125 -101.25390625 184.89453125 C-101.35703125 184.09015625 -101.46015625 183.28578125 -101.56640625 182.45703125 C-103.94514342 182.08630289 -103.94514342 182.08630289 -106.56640625 182.45703125 C-108.24302111 184.33756038 -108.24302111 184.33756038 -109.44140625 186.89453125 C-114.67432645 196.3324766 -121.1761488 205.33066783 -131.56640625 209.45703125 C-138.82756898 210.30655152 -145.91849651 210.63963219 -151.953125 206.078125 C-157.70331332 200.30009073 -160.83150462 192.98673207 -160.94140625 184.83203125 C-160.47612169 162.98814541 -152.08847179 141.23553029 -145.75390625 120.515625 C-138.81480243 101.20360359 -138.81480243 101.20360359 -139.56640625 81.45703125 C-144.909574 81.7808596 -147.96066169 84.81047436 -151.56640625 88.45703125 C-153.58608374 91.06166492 -155.27631926 93.80289896 -156.94140625 96.64453125 C-157.41054443 97.43569336 -157.87968262 98.22685547 -158.36303711 99.04199219 C-173.49883684 125.01251257 -181.6762741 153.14546971 -187.56640625 182.45703125 C-188.10290559 185.08560148 -188.64463069 187.71261742 -189.20166016 190.33691406 C-189.51191539 191.79879466 -189.81231496 193.26283087 -190.09912109 194.72949219 C-191.1390243 199.66441745 -192.84989748 204.20266421 -195.56640625 208.45703125 C-199.30229793 210.32497709 -203.50945665 210.14594722 -207.56640625 209.45703125 C-210.80673722 207.15084975 -212.31600188 204.20824436 -213.56640625 200.45703125 C-213.79201301 198.06448549 -213.9748922 195.66775002 -214.12890625 193.26953125 C-214.21269531 191.99722656 -214.29648437 190.72492188 -214.3828125 189.4140625 C-214.44339844 188.43824219 -214.50398437 187.46242188 -214.56640625 186.45703125 C-217.26911975 186.82210366 -218.36682199 187.24023343 -220.2421875 189.27734375 C-220.78230469 190.03789063 -221.32242188 190.7984375 -221.87890625 191.58203125 C-228.13808215 199.9320101 -235.29905529 207.7130329 -245.9921875 209.96875 C-251.53338797 210.24628854 -256.05711788 208.63425412 -260.56640625 205.45703125 C-266.68698289 199.47246742 -268.70471311 193.31455644 -268.9296875 184.96484375 C-268.93101804 182.5038484 -268.91332463 180.04278627 -268.87890625 177.58203125 C-268.87052734 176.30239502 -268.86214844 175.02275879 -268.85351562 173.7043457 C-268.72944423 163.85493834 -268.02637885 154.19452709 -266.56640625 144.45703125 C-270.57494659 144.17622282 -272.52654352 144.81342453 -275.87890625 146.95703125 C-283.06329976 150.7434008 -292.21506364 150.98965577 -300.0078125 148.7578125 C-305.71916778 145.83428939 -308.56222735 140.29198248 -310.56640625 134.45703125 C-312.40507758 121.25042086 -307.51634921 109.97311558 -302.796875 97.9296875 C-302.51730957 97.2082959 -302.23774414 96.4869043 -301.94970703 95.74365234 C-301.4166097 94.38030586 -300.87011026 93.02209688 -300.30810547 91.67041016 C-298.79799396 87.86764756 -298.30044164 85.38976156 -299.56640625 81.45703125 C-305.44038484 82.05790361 -307.65230399 85.26993097 -311.33642578 89.57226562 C-314.77993362 94.02688449 -317.45287587 98.69772043 -320.00390625 103.70703125 C-320.55103271 104.77260254 -321.09815918 105.83817383 -321.66186523 106.93603516 C-333.10985349 130.05187701 -339.22737122 154.99026404 -342.56640625 180.45703125 C-343.02929284 183.95944654 -343.51208858 187.45857031 -344.00390625 190.95703125 C-344.11420166 191.80644287 -344.22449707 192.65585449 -344.33813477 193.53100586 C-345.14106653 199.17846095 -346.354016 203.90427327 -350.19140625 208.33203125 C-353.93878493 210.10710536 -357.51008408 210.25238854 -361.56640625 209.45703125 C-364.32210072 207.2754398 -366.00229372 205.58525631 -367.56640625 202.45703125 C-367.79590944 200.25266725 -367.97716558 198.04310952 -368.12890625 195.83203125 C-368.21269531 194.64351562 -368.29648437 193.455 -368.3828125 192.23046875 C-368.47369141 190.85761719 -368.47369141 190.85761719 -368.56640625 189.45703125 C-372.02444367 189.72907965 -373.29954526 190.17117832 -375.70703125 192.75 C-376.403125 193.70519531 -377.09921875 194.66039062 -377.81640625 195.64453125 C-382.44784634 201.60034634 -387.33147864 206.04538871 -394.56640625 208.45703125 C-400.3360738 208.92692407 -405.69026121 209.26109341 -411.06640625 206.95703125 C-418.67940953 199.34402797 -420.98193803 191.06244383 -421.00390625 180.51953125 C-420.94629108 150.71808237 -414.44478865 85.08245871 -395.56640625 60.89453125 C-390.92253912 58.66934492 -386.61287454 58.60512387 -381.56640625 59.45703125 C-377.57762842 61.31326534 -375.01706701 63.78104011 -372.56640625 67.45703125 C-370.99912387 79.9952903 -373.86667694 93.82941411 -378.56640625 105.45703125 C-379.20596259 108.0375992 -379.80797044 110.61167946 -380.37890625 113.20703125 C-381.69536706 119.01153988 -383.18847201 124.70743501 -384.94140625 130.39453125 C-387.23460989 137.90145133 -389.05787967 145.49615963 -390.81640625 153.14453125 C-391.07470215 154.26786865 -391.33299805 155.39120605 -391.59912109 156.54858398 C-393.32314557 164.15278389 -394.71495177 171.31467996 -394.75390625 179.14453125 C-394.77517578 181.09939453 -394.77517578 181.09939453 -394.796875 183.09375 C-394.83698884 186.58905359 -394.83698884 186.58905359 -392.56640625 189.45703125 C-387.26180226 189.1355401 -383.97813944 186.25241316 -380.56640625 182.45703125 C-377.72723357 178.57786858 -375.19091613 174.57942733 -372.74560547 170.44287109 C-371.96151951 169.12242489 -371.16365056 167.81006342 -370.35205078 166.50634766 C-363.53281438 155.50326257 -360.98451537 145.3109261 -359.08056641 132.60253906 C-358.11575175 126.70003573 -356.83243268 120.86353721 -355.56640625 115.01953125 C-355.30649902 113.8188501 -355.0465918 112.61816895 -354.77880859 111.38110352 C-347.01564274 75.92079084 -347.01564274 75.92079084 -341.7109375 70.59375 C-337.78983471 68.51535125 -333.87489519 68.87282936 -329.56640625 69.45703125 C-325.20726411 70.84140909 -322.5203967 73.12613605 -320.37890625 77.14453125 C-318.95231728 80.57137084 -318.95231728 80.57137084 -316.31640625 81.39453125 C-315.73890625 81.41515625 -315.16140625 81.43578125 -314.56640625 81.45703125 C-314.30859375 80.72355469 -314.05078125 79.99007812 -313.78515625 79.234375 C-309.71985726 69.97018403 -301.27313748 64.81039686 -292.56640625 60.45703125 C-286.44537908 59.92935649 -281.54244795 60.60639144 -276.56640625 64.45703125 C-273.29597526 68.56950424 -273.02287636 72.49895248 -273.06640625 77.58203125 C-273.07212646 78.369729 -273.07784668 79.15742676 -273.08374023 79.96899414 C-273.48137281 93.50590635 -278.13868538 106.40589178 -283.33032227 118.78881836 C-285.91368703 125.25260183 -286.80297004 131.74733989 -284.56640625 138.45703125 C-275.44154409 137.256936 -270.77406455 133.51206718 -265.13671875 126.41796875 C-260.44742887 119.62042178 -259.13355856 112.08532081 -257.56542969 104.11425781 C-257.06229843 101.56118666 -256.52436002 99.01732529 -255.98046875 96.47265625 C-255.64250915 94.84547076 -255.3064996 93.21787875 -254.97265625 91.58984375 C-254.81446411 90.8325296 -254.65627197 90.07521545 -254.49328613 89.29495239 C-253.78554878 85.65368824 -253.50093502 83.00136765 -254.56640625 79.45703125 C-255.82453125 79.37453125 -257.08265625 79.29203125 -258.37890625 79.20703125 C-261.1051167 78.84031976 -262.3336122 78.63162679 -264.56640625 76.95703125 C-266.06926993 73.19987206 -266.28171307 69.44030844 -265.56640625 65.45703125 C-264.52197266 63.36523438 -264.52197266 63.36523438 -262.56640625 61.45703125 C-259.88112161 60.99921223 -257.56988911 60.76230821 -254.87890625 60.70703125 C-254.17701172 60.67738281 -253.47511719 60.64773438 -252.75195312 60.6171875 C-251.02405201 60.54666092 -249.29522305 60.49956057 -247.56640625 60.45703125 C-247.34500977 59.63090332 -247.12361328 58.80477539 -246.89550781 57.95361328 C-246.05789825 54.83981499 -245.21480143 51.72756565 -244.36816406 48.61621094 C-244.00533928 47.27857549 -243.64460104 45.94037202 -243.28613281 44.6015625 C-237.86978683 24.38860653 -237.86978683 24.38860653 -233.50390625 18.83203125 C-228.89812318 16.67613279 -224.55478615 16.73811768 -219.56640625 17.45703125 C-214.70782781 19.75381378 -211.93171646 22.63543736 -209.56640625 27.45703125 C-207.98439169 35.28638902 -211.26391763 43.07898378 -213.56640625 50.45703125 C-215.37634835 56.35540914 -215.37634835 56.35540914 -215.56640625 62.45703125 C-213.39814304 64.62529446 -208.57956364 63.84311502 -205.64453125 63.98046875 C-202.30285672 64.4978346 -200.32430738 65.54692936 -197.56640625 67.45703125 C-197.89640625 69.10703125 -198.22640625 70.75703125 -198.56640625 72.45703125 C-200.54408908 73.08671079 -202.5236456 73.71050614 -204.50390625 74.33203125 C-205.68597656 74.70457031 -206.86804688 75.07710938 -208.0859375 75.4609375 C-210.98593662 76.29090358 -213.71802104 76.83212417 -216.69140625 77.26953125 C-218.80044883 77.64622926 -218.80044883 77.64622926 -220.56640625 78.45703125 C-222.872299 82.10182947 -223.55552103 85.33365329 -224.41015625 89.5 C-225.39374539 93.9658669 -226.72435566 98.26601009 -228.13037109 102.61474609 C-232.09829596 114.9027012 -235.39776003 127.28937318 -238.44140625 139.83203125 C-238.63413116 140.62049438 -238.82685608 141.40895752 -239.02542114 142.22131348 C-242.08284563 154.7728628 -244.93608561 167.02434709 -244.81640625 180.01953125 C-244.82414063 180.89416016 -244.831875 181.76878906 -244.83984375 182.66992188 C-244.83726562 183.50845703 -244.8346875 184.34699219 -244.83203125 185.2109375 C-244.82977539 185.95674072 -244.82751953 186.70254395 -244.82519531 187.47094727 C-244.67392706 189.77517059 -244.67392706 189.77517059 -242.56640625 192.45703125 C-237.16273901 192.03321421 -234.55204152 191.08757152 -230.56640625 187.45703125 C-226.86536766 183.04575815 -223.71690224 178.26845387 -220.56640625 173.45703125 C-219.75913086 172.24345947 -219.75913086 172.24345947 -218.93554688 171.00537109 C-209.45066137 156.48061691 -205.06326934 142.82691404 -202.15625 125.80517578 C-201.27469632 120.80119103 -200.17432148 115.85238684 -199.06640625 110.89453125 C-198.6567507 109.02231058 -198.24790339 107.1499129 -197.83984375 105.27734375 C-197.63327148 104.33407227 -197.42669922 103.39080078 -197.21386719 102.41894531 C-196.76750685 100.37699823 -196.32295358 98.33465558 -195.87988281 96.29199219 C-191.08226169 74.18608086 -185.68264417 52.25732374 -179.87890625 30.39453125 C-179.46910522 28.83496704 -179.46910522 28.83496704 -179.05102539 27.24389648 C-174.36190023 9.79661432 -174.36190023 9.79661432 -170.50390625 4.76953125 C-165.87314218 2.70046645 -161.5418 2.61121431 -156.56640625 3.45703125 C-153.15622744 5.07269289 -150.29870153 6.99244069 -148.56640625 10.45703125 C-147.37942912 20.10545965 -149.98579041 28.38254884 -152.91259766 37.41552734 C-154.38697461 42.01923911 -155.6630786 46.68355841 -156.97021484 51.33691406 C-157.41909342 52.93317185 -157.87034474 54.52876269 -158.32275391 56.12402344 C-159.16097022 59.08727426 -159.98950659 62.0531044 -160.81640625 65.01953125 C-161.22234009 66.44881958 -161.22234009 66.44881958 -161.63647461 67.90698242 C-161.8866333 68.8116626 -162.13679199 69.71634277 -162.39453125 70.6484375 C-162.62043945 71.45482666 -162.84634766 72.26121582 -163.07910156 73.09204102 C-163.59730372 75.60698306 -163.65167754 77.89633445 -163.56640625 80.45703125 C-162.24640625 80.78703125 -160.92640625 81.11703125 -159.56640625 81.45703125 C-159.00953125 80.73257813 -158.45265625 80.008125 -157.87890625 79.26171875 C-152.35413206 72.26242712 -146.88170599 66.06249325 -138.56640625 62.45703125 C-132.47301114 61.94064183 -127.01864742 62.52571879 -121.56640625 65.45703125 C-115.620696 70.4758437 -112.99960309 75.50621023 -112.3203125 83.26953125 C-111.5669629 102.62833297 -117.89927315 122.28081497 -123.70629883 140.53051758 C-125.12193959 144.98364882 -126.43290569 149.45621053 -127.69140625 153.95703125 C-128.70610602 157.56756939 -129.74472416 161.09647428 -131.12890625 164.58203125 C-134.28939814 172.70901039 -136.84847112 181.68237949 -135.56640625 190.45703125 C-134.90640625 191.44703125 -134.24640625 192.43703125 -133.56640625 193.45703125 C-130.36621285 193.39302738 -127.66429232 193.30090769 -125.046875 191.2890625 C-116.5411023 181.79915082 -110.88728437 169.61401284 -105.42626953 158.20117188 C-104.66424446 156.65548559 -103.82549617 155.14815079 -102.9765625 153.6484375 C-100.99962642 149.17431901 -100.2378979 144.61861313 -99.31640625 139.83203125 C-93.62461383 112.24602999 -82.12202101 81.27914847 -57.92578125 64.83203125 C-51.87406821 61.30520511 -46.49385897 60.60504585 -39.56640625 61.45703125 C-36.41399411 62.75472324 -34.12827756 64.33328863 -32.56640625 67.45703125 C-30.91640625 67.45703125 -29.26640625 67.45703125 -27.56640625 67.45703125 C-27.2876062 66.2352417 -27.2876062 66.2352417 -27.00317383 64.98876953 C-20.54879357 36.78839872 -20.54879357 36.78839872 -17.20043945 25.27685547 C-15.94648571 20.94823842 -14.95663302 16.62354518 -14.06640625 12.20703125 C-12.10130156 3.71305414 -9.34312728 -0.59696058 0 0 Z " fill="#E76383" transform="translate(599.56640625,357.54296875)"/>
<path d="M0 0 C3.53419602 2.82011249 6.79850868 5.80934283 10 9 C11.06541016 10.03060547 11.06541016 10.03060547 12.15234375 11.08203125 C23.5679088 22.89199202 27.8516034 37.8070342 28.4375 53.9375 C27.98467576 70.6542614 21.86581156 85.57846953 10.3515625 97.78515625 C7.35274855 100.60962055 4.16163645 103.02799205 0.75 105.33203125 C-1.45998692 107.43842503 -1.67595998 109.01781918 -2 112 C-1.401875 112.26941406 -0.80375 112.53882813 -0.1875 112.81640625 C5.96097125 116.14316837 9.19725023 122.33497129 11.3046875 128.78125 C14.15795275 141.98962399 11.68631895 154.14587841 4.8125 165.6875 C-4.40478554 179.29770461 -17.51035979 187.7513756 -33.44726562 191.59423828 C-39.30610967 192.52551208 -45.26938798 192.34378057 -51.1875 192.3125 C-52.25121826 192.30976578 -52.25121826 192.30976578 -53.33642578 192.30697632 C-74.27160839 192.21648436 -101.35907835 190.93580645 -118 176.375 C-120.27678292 173.67132028 -121.860601 171.76669449 -122.5 168.25 C-121.79566131 163.67179852 -119.41361481 161.03780401 -116 158 C-112.49744098 155.95796752 -110.07649535 155.51082056 -106 156 C-101.36282684 158.46658147 -98.13550278 161.80817172 -94.7109375 165.70703125 C-93.09515022 167.23390884 -93.09515022 167.23390884 -91.05273438 166.79638672 C-87.19014206 165.29784056 -85.76649995 161.56325324 -84 158 C-82.75339569 154.77927151 -81.79128604 151.51555003 -80.875 148.1875 C-80.62202148 147.30167236 -80.36904297 146.41584473 -80.10839844 145.50317383 C-79.61420065 143.76662658 -79.12503815 142.02863625 -78.64160156 140.2890625 C-78.12516034 138.44653858 -77.57899276 136.61236013 -77.0234375 134.78125 C-75.15753568 128.52388227 -74.31615888 122.29581075 -73.53125 115.8203125 C-73.02408893 112.17322778 -72.31748906 108.65127695 -71.5 105.0625 C-70.439917 100.33410998 -69.66737587 95.68986505 -69.125 90.875 C-67.23128952 74.24291872 -63.89682277 57.72950675 -60.375 41.375 C-60.18123779 40.47064209 -59.98747559 39.56628418 -59.7878418 38.63452148 C-56.38524055 23.23425894 -56.38524055 23.23425894 -53.0625 17.875 C-48.19927688 14.89751646 -43.54012132 15.09578331 -38 16 C-34.90831481 17.25045866 -32.52056283 18.83231596 -30 21 C-29.319375 21.5775 -28.63875 22.155 -27.9375 22.75 C-25.34432161 28.97362813 -28.88639287 38.17689898 -30.4375 44.5 C-32.62257204 53.63424968 -34.59546828 62.79608478 -36.4453125 72.00390625 C-36.66000687 73.0705954 -36.87470123 74.13728455 -37.09590149 75.23629761 C-38.17753319 80.62159675 -39.24862851 86.00878637 -40.30834961 91.3984375 C-42.64218078 103.14111352 -45.35056312 114.5949936 -49 126 C-49.45113159 127.41587402 -49.45113159 127.41587402 -49.91137695 128.86035156 C-50.57831587 130.91843882 -51.28043482 132.95982108 -52 135 C-52.4125 136.216875 -52.825 137.43375 -53.25 138.6875 C-57.88045224 150.70748225 -63.8410081 162.14130092 -74 170.375 C-74.99 171.24125 -75.98 172.1075 -77 173 C-77 174.32 -77 175.64 -77 177 C-75.0848421 177.81604999 -73.16781166 178.62770632 -71.25 179.4375 C-69.64898437 180.11619141 -69.64898437 180.11619141 -68.015625 180.80859375 C-59.41600185 184.20611326 -48.81614214 184.56640235 -40.15234375 181.09765625 C-26.26018607 174.01290796 -20.80143359 163.40430076 -16 149 C-15.74616335 145.79627378 -15.76865162 142.58774178 -15.75 139.375 C-15.729375 138.51003906 -15.70875 137.64507812 -15.6875 136.75390625 C-15.64361528 129.43612878 -17.18643174 123.48205106 -20.5625 117 C-23.83812372 114.31230874 -26.50908436 114.3568833 -30.66015625 114.23828125 C-33 114 -33 114 -36 112 C-36.375 109.5625 -36.375 109.5625 -36 107 C-34.31336939 104.72002702 -33.40664724 104.06963588 -30.58203125 103.5859375 C-29.66808594 103.51632812 -28.75414063 103.44671875 -27.8125 103.375 C-22.07916196 102.40938517 -19.46217344 100.48197512 -15.91015625 95.9453125 C-9.5068149 86.07185773 -4.77423759 75.45403046 -2 64 C-1.7361853 62.92190063 -1.7361853 62.92190063 -1.46704102 61.82202148 C0.03829168 55.12399379 0.34827304 48.66356268 0.3125 41.8125 C0.30831055 40.71623291 0.30412109 39.61996582 0.29980469 38.49047852 C0.18219122 30.00666901 -0.56560169 22.17185688 -3 14 C-3.22042969 13.16210938 -3.44085938 12.32421875 -3.66796875 11.4609375 C-4.8867995 8.05811053 -6.17299458 6.49169487 -9.29296875 4.63671875 C-20.96143432 -0.04676191 -35.28061722 0.45687611 -46.98828125 4.6875 C-65.07566987 12.56994173 -76.82032159 25.30760225 -85.640625 42.75 C-87 45 -87 45 -90 47 C-95.32643732 46.80272454 -98.32181859 45.8668061 -102 42 C-106.14033777 36.60770296 -109.12722262 31.52456732 -108.63671875 24.5703125 C-105.63605577 12.45720674 -94.64400892 4.17549128 -84.6875 -2.25 C-58.66730115 -17.61722332 -24.90547884 -18.04263578 0 0 Z " fill="#E76384" transform="translate(152,373)"/>
<path d="M0 0 C3.30208538 2.20139026 3.95784849 5.30232436 5 9 C7.69457542 42.52368832 -4.69531563 88.11480209 -26.75 114.05859375 C-29.23395091 116.71920496 -31.29267328 118.68001887 -34.625 120.1875 C-38.03892772 119.91797939 -39.52547008 118.27917229 -42 116 C-42.99 115.34 -43.98 114.68 -45 114 C-45.59838533 108.23022221 -44.29089049 102.90442551 -42.98828125 97.32421875 C-42.77817917 96.40018753 -42.56807709 95.47615631 -42.35160828 94.52412415 C-41.90541005 92.56921142 -41.45552875 90.61513613 -41.00219727 88.66186523 C-40.32393723 85.7368238 -39.65804049 82.80918938 -38.99414062 79.88085938 C-35.57910975 64.93093167 -32.12229237 49.82871129 -26.75 35.4375 C-26.46261963 34.6650293 -26.17523926 33.89255859 -25.87915039 33.09667969 C-23.71826299 27.47848686 -21.22049908 22.08604198 -18.4375 16.75 C-18.0859082 16.07122803 -17.73431641 15.39245605 -17.37207031 14.69311523 C-13.73162397 7.98804154 -8.6323528 -1.0790441 0 0 Z " fill="#fde68a" transform="translate(569,114)"/>
<path d="M0 0 C5.55991695 5.55991695 5.35328686 11.52188169 5.38500977 18.97753906 C5.04151371 38.10191413 -0.53713939 57.13229787 -7 75 C-7.28101563 75.7822998 -7.56203125 76.56459961 -7.8515625 77.37060547 C-11.74704768 88.0035507 -16.93404598 101.65477946 -26 109 C-30.22489467 109 -32.38512299 107.01609108 -35.44140625 104.27734375 C-37.74068309 102.39297401 -40.30500566 101.21916411 -43 100 C-43.15814263 94.9855941 -42.64747925 90.66959406 -41.4609375 85.80078125 C-41.29977448 85.13231171 -41.13861145 84.46384216 -40.9725647 83.77511597 C-40.44923812 81.61853598 -39.91320543 79.46541133 -39.375 77.3125 C-39.10139648 76.20510971 -39.10139648 76.20510971 -38.82226562 75.0753479 C-23.92184204 14.79643586 -23.92184204 14.79643586 -7 1 C-4.37869511 -0.31065245 -2.90828303 -0.415469 0 0 Z " fill="#fde68a" transform="translate(460,117)"/>
<path d="M0 0 C2.4375 1.375 2.4375 1.375 4 4 C4.72521043 10.86131343 3.57216485 17.41459546 2.05859375 24.08203125 C1.85323502 25.01689865 1.64787628 25.95176605 1.43629456 26.91496277 C1.00010261 28.8867718 0.55860744 30.85741448 0.11206055 32.8269043 C-0.55142002 35.76346016 -1.19194051 38.7043315 -1.83007812 41.64648438 C-5.48816527 58.19466783 -9.93136954 74.91314853 -17.4375 90.1875 C-17.8102002 90.96085693 -18.18290039 91.73421387 -18.56689453 92.53100586 C-22.12682716 99.67869483 -26.24005024 106.49336683 -33 111 C-35.5625 110.875 -35.5625 110.875 -38 110 C-40.77335997 105.63647657 -40.38371752 101.19963737 -40.375 96.1875 C-40.37338867 95.21917236 -40.37177734 94.25084473 -40.37011719 93.25317383 C-40.18988992 82.27256274 -38.27778949 71.71506854 -36 61 C-35.82919922 60.18563477 -35.65839844 59.37126953 -35.48242188 58.53222656 C-31.56535138 40.15271734 -26.03175068 15.59416948 -11 3 C-10.38125 2.401875 -9.7625 1.80375 -9.125 1.1875 C-5.93239152 -0.59660474 -3.58542907 -0.44817863 0 0 Z " fill="#fde68a" transform="translate(674,436)"/>
<path d="M0 0 C2.5 1.5 2.5 1.5 4 4 C4.55658007 11.09639594 2.94108193 17.44961383 1.25 24.3125 C0.68685899 26.65187686 0.1256707 28.99172461 -0.43359375 31.33203125 C-0.70671387 32.47365723 -0.97983398 33.6152832 -1.26123047 34.79150391 C-2.06365535 38.27645689 -2.74252982 41.77047514 -3.39428711 45.28588867 C-6.9482614 64.10141279 -14.37158487 98.04337769 -31 110 C-34.4375 111 -34.4375 111 -37 111 C-39.77155828 107.86046258 -40.38988595 105.85730602 -40.43359375 101.6953125 C-40.44503418 100.64827148 -40.45647461 99.60123047 -40.46826172 98.52246094 C-40.45811035 97.40129883 -40.44795898 96.28013672 -40.4375 95.125 C-40.42992676 93.96258789 -40.42235352 92.80017578 -40.41455078 91.60253906 C-40.20554634 80.42003856 -38.58597324 69.8595132 -36 59 C-35.78569336 58.08766602 -35.57138672 57.17533203 -35.35058594 56.23535156 C-24.87078009 12.65339331 -24.87078009 12.65339331 -9.828125 0.96484375 C-6.32382076 -0.88465015 -3.89948598 -0.63926 0 0 Z " fill="#fde68a" transform="translate(564,436)"/>
<path d="M0 0 C2.00566735 1.56132734 2.89054451 2.49644345 3.43579102 5.00488281 C3.45832402 14.82927467 1.10684651 24.22344555 -1.0625 33.75 C-1.26763214 34.66317993 -1.47276428 35.57635986 -1.68411255 36.51721191 C-15.70143666 98.80095777 -15.70143666 98.80095777 -34 111 C-36.6875 110.625 -36.6875 110.625 -39 110 C-49.05115329 83.4247507 -34.11984661 44.56064576 -23.60546875 19.703125 C-19.06237434 9.84098066 -12.33620817 -2.05196334 0 0 Z " fill="#fde68a" transform="translate(355,114)"/>
<path d="M0 0 C1 1 1 1 1.0546875 2.984375 C-0.06624287 20.23695554 -3.88436588 40.94019255 -17.0625 53.25 C-22.09703591 57.06761105 -27.51003068 59.91550625 -34 59.5859375 C-37.54437386 58.54754672 -39.48740645 56.48063918 -41.69921875 53.59765625 C-44.27203204 48.45975584 -44.01936978 43.55203917 -43 38 C-37.50345726 22.46062154 -25.23578546 13.43541264 -12.125 4.4375 C-11.494729 3.99559326 -10.86445801 3.55368652 -10.21508789 3.09838867 C-6.72197946 0.75863437 -4.24911824 -0.68205404 0 0 Z " fill="#fde68a" transform="translate(758,591)"/>
<path d="M0 0 C0.55945313 0.22171875 1.11890625 0.4434375 1.6953125 0.671875 C3.30408116 5.72652234 2.07862722 10.19530215 1.0078125 15.234375 C0.82210693 16.12753418 0.63640137 17.02069336 0.44506836 17.94091797 C-2.57622797 32.03519515 -6.75492978 47.56278302 -18.8671875 56.546875 C-24.03634702 59.57368324 -29.49393514 59.73217033 -35.3046875 58.671875 C-38.78711141 56.14541059 -39.95695572 54.71507035 -41.3046875 50.671875 C-42.32169638 40.3129131 -40.67768868 33.49019013 -34.4609375 25.21875 C-28.45354708 18.09057779 -9.84967084 -1.40232602 0 0 Z " fill="#fde68a" transform="translate(653.3046875,268.328125)"/>
<path d="M0 0 C3.77060237 2.20587872 5.84318155 4.29166604 7.625 8.375 C8.94363696 16.34961399 7.24633423 22.80193724 2.625 29.375 C-2.94232792 35.6927069 -9.47960023 39.79714657 -17.8828125 40.7890625 C-27.2407443 41.16025395 -27.2407443 41.16025395 -31.625 38.125 C-32.2025 37.2175 -32.78 36.31 -33.375 35.375 C-33.808125 34.776875 -34.24125 34.17875 -34.6875 33.5625 C-37.06737506 25.99017027 -34.65372618 18.78638018 -31.15625 12.015625 C-24.60180021 1.16436924 -12.38421083 -5.59961503 0 0 Z " fill="#E76384" transform="translate(239.375,360.625)"/>
<path d="M0 0 C0.8146875 0.00257813 1.629375 0.00515625 2.46875 0.0078125 C3.2834375 0.00523437 4.098125 0.00265625 4.9375 0 C6.96875 0.1328125 6.96875 0.1328125 7.96875 1.1328125 C7.93087481 2.9479082 7.81382974 4.76167335 7.65625 6.5703125 C7.53830078 8.05337891 7.53830078 8.05337891 7.41796875 9.56640625 C6.96875 12.1328125 6.96875 12.1328125 4.96875 14.1328125 C2.53125 14.1953125 2.53125 14.1953125 -0.03125 13.1328125 C-2.26376374 9.12968442 -3.57290317 5.73686442 -3.03125 1.1328125 C-2.03125 0.1328125 -2.03125 0.1328125 0 0 Z " fill="#fde68a" transform="translate(172.03125,170.8671875)"/>
</svg>
